<?xml version="1.0" encoding="utf-8"?>
<!-- Generator: Adobe Illustrator 24.0.3, SVG Export Plug-In . SVG Version: 6.00 Build 0)  -->
<svg version="1.1" id="Layer_1" xmlns="http://www.w3.org/2000/svg" xmlns:xlink="http://www.w3.org/1999/xlink" x="0px" y="0px"
	 viewBox="0 0 124 79" style="enable-background:new 0 0 124 79;" xml:space="preserve">
<style type="text/css">
	.st0{fill:#CC0000;}
	.st1{display:none;}
	.st2{font-family:'DucatiStyleExt-Bold';}
	.st3{font-size:13px;}
</style>
<path class="st0" d="M72.3,25.1c-15.1,2.4-22.4,6.4-26,10.1c-2.7,2.9-1.8,5.1-1.1,6.4c2.3,3.6,4.9,6.8,8.3,10.1
	c1.1,1.1,4.5,4.2,5.9,5c1.2,0.6,2.5,0.6,2.5,0.6s1.3,0,2.5-0.6c1.5-0.7,4.9-3.9,5.9-5c5.6-5.6,9-10.5,12.7-18.3
	c1.6-3.4,2.8-6.8,3.5-9.7v0C83.4,23.7,78.7,24.1,72.3,25.1z M44.6,11.4h-0.3l-0.9,4.2h0.3c0.5,0,0.8-0.2,1.1-0.5
	c0.3-0.3,0.4-0.9,0.6-1.6s0.2-1.3,0.1-1.6C45.3,11.5,45.1,11.4,44.6,11.4z M84.5,5.8c-7.4-3.6-15.3-5-22.5-5s-15.1,1.3-22.5,5
	c-2.6,1.3-3.9,3.7-3.9,7.3c0,0.7,0.1,1.5,0.2,2.4l0,0.4c0.2,1.8,0.8,6.1,2.5,11.3c2-2.5,9.8-4.7,23.7-5.4
	c13.1-0.7,22.4-0.6,25.3-0.6c0.5-2.4,0.8-4.3,0.9-5.3l0.1-0.4C88.9,10.6,87.7,7.4,84.5,5.8z M48.5,13.5c-0.5,2.3-2.3,3.7-4.7,3.7
	h-3.8l1.6-7.7h3.6C48.4,9.6,49,11.3,48.5,13.5z M52.1,17.5c-2.3,0-3.5-0.9-3.1-2.8l1.1-5.1h3l-1.1,5c-0.1,0.6,0.1,0.8,0.4,0.8
	s0.7-0.2,0.8-0.8l1.1-5h3l-1.1,5.1C55.9,16.6,54.4,17.5,52.1,17.5z M60.4,17.5c-2.7,0-3.6-1.6-3.1-4.1c0.4-2.4,2.2-4,4.8-4
	c2,0,3.4,0.8,2.9,3h-2.8c0.1-0.9-0.1-1.1-0.5-1.1c-0.8,0-1,0.8-1.3,2c-0.3,1.2-0.4,2,0.4,2c0.4,0,0.7-0.2,0.9-1.1h2.8
	C64.2,16.6,62.3,17.5,60.4,17.5z M69.7,17.3l0-1.2h-2.2l-0.6,1.2h-2.9L68,9.6H72l0.8,7.7H69.7z M76.8,17.3h-3l1.2-5.6H73l0.4-2.1
	h6.8l-0.4,2.1H78L76.8,17.3z M82.3,17.3h-3l1.6-7.7h3L82.3,17.3z M68.3,14.2h1.3v-2.9h0L68.3,14.2z"/>
<text transform="matrix(1 0 0 1 17.2631 75.4146)" class="st1 st2 st3">Shop Online</text>
<g>
	<path d="M5.3,75.6c-1,0-1.8-0.1-2.5-0.4c-0.6-0.3-1.1-0.8-1.4-1.4s-0.5-1.4-0.5-2.4v-5.7h1.4v5.7c0,0.6,0.1,1,0.2,1.4
		c0.1,0.4,0.3,0.7,0.5,0.9s0.5,0.4,0.9,0.5c0.4,0.1,0.8,0.2,1.4,0.2s1-0.1,1.4-0.2c0.4-0.1,0.7-0.3,0.9-0.5c0.2-0.2,0.4-0.5,0.5-0.9
		c0.1-0.4,0.2-0.9,0.2-1.4v-5.7h1.4v5.7c0,1-0.2,1.8-0.5,2.4c-0.3,0.6-0.8,1.1-1.4,1.4C7.1,75.4,6.3,75.6,5.3,75.6z"/>
	<path d="M14.8,68.7c0.2-0.1,0.4-0.2,0.5-0.2c0.2-0.1,0.3-0.1,0.5-0.1s0.4,0,0.7,0v1.3c-0.3,0-0.5,0-0.7,0.1c-0.2,0-0.4,0.1-0.7,0.2
		c-0.2,0.1-0.4,0.2-0.6,0.3c-0.2,0.1-0.4,0.2-0.7,0.3v5h-1.4v-7h1l0.2,1c0.2-0.1,0.4-0.3,0.6-0.4C14.4,68.9,14.6,68.8,14.8,68.7z"/>
	<path d="M22.3,68.2c0.6,0,1.2,0.1,1.6,0.4c0.4,0.3,0.8,0.7,1,1.2c0.2,0.5,0.4,1.2,0.4,1.9c0,1.2-0.3,2.1-0.8,2.8
		c-0.6,0.6-1.4,1-2.5,1c-0.3,0-0.6,0-1-0.1s-0.6-0.1-0.9-0.3s-0.6-0.3-0.8-0.4l-0.1,0.6h-1V65.1h1.4v3.8c0.4-0.1,0.7-0.2,1-0.3
		c0.3-0.1,0.6-0.2,0.9-0.2S22,68.2,22.3,68.2z M21.7,74.4c0.7,0,1.3-0.2,1.6-0.6c0.4-0.4,0.5-1,0.5-1.9c0-0.8-0.2-1.4-0.5-1.8
		c-0.3-0.4-0.8-0.6-1.5-0.6c-0.3,0-0.7,0-1.1,0.1s-0.8,0.2-1.4,0.4v3.8c0.3,0.2,0.7,0.4,1,0.5C20.9,74.3,21.3,74.4,21.7,74.4z"/>
	<path d="M30.2,68.2c0.7,0,1.2,0.1,1.7,0.2s0.8,0.4,1,0.8c0.2,0.4,0.3,0.8,0.3,1.4v4.8h-1l-0.1-0.7c-0.6,0.3-1.2,0.5-1.6,0.6
		c-0.5,0.1-0.9,0.2-1.3,0.2c-0.5,0-0.9-0.1-1.3-0.3c-0.4-0.2-0.6-0.4-0.8-0.7s-0.3-0.7-0.3-1.2c0-0.8,0.3-1.3,0.8-1.7
		c0.6-0.4,1.4-0.6,2.5-0.6h1.8v-0.4c0-0.3-0.1-0.6-0.2-0.8c-0.1-0.2-0.3-0.3-0.6-0.4c-0.3-0.1-0.6-0.1-1-0.1c-0.4,0-0.8,0-1.3,0.1
		c-0.4,0.1-0.8,0.2-1.2,0.3l0.3-1.2c0.4-0.1,0.8-0.2,1.2-0.3C29.3,68.3,29.7,68.2,30.2,68.2z M28,73.4c0,0.4,0.1,0.6,0.4,0.8
		c0.3,0.2,0.6,0.3,1.1,0.3c0.2,0,0.4,0,0.6-0.1s0.5-0.1,0.7-0.2s0.6-0.2,0.9-0.4v-1.7H30c-0.7,0-1.2,0.1-1.5,0.3S28,73,28,73.4z"/>
	<path d="M40.1,68.2c0.7,0,1.3,0.2,1.7,0.5s0.6,0.9,0.6,1.6v5H41v-4.7c0-0.3,0-0.6-0.1-0.8c-0.1-0.2-0.2-0.3-0.4-0.4
		c-0.2-0.1-0.4-0.1-0.7-0.1c-0.4,0-0.8,0.1-1.2,0.2c-0.4,0.1-0.9,0.2-1.5,0.4v5.4h-1.4v-7h1l0.1,0.6c0.6-0.2,1.2-0.4,1.8-0.6
		C39.1,68.3,39.7,68.2,40.1,68.2z"/>
	<path d="M55.3,71.6v0.9h-5.5c0.1,0.5,0.2,0.9,0.4,1.2c0.2,0.3,0.5,0.5,0.8,0.6c0.4,0.1,0.8,0.2,1.3,0.2c0.4,0,0.8,0,1.3-0.1
		c0.4-0.1,0.8-0.2,1.2-0.3l-0.3,1.2c-0.4,0.1-0.8,0.2-1.2,0.3s-0.8,0.1-1.2,0.1c-0.9,0-1.6-0.1-2.1-0.4c-0.6-0.3-1-0.7-1.3-1.2
		c-0.3-0.5-0.4-1.2-0.4-2c0-1.2,0.3-2.1,0.9-2.7c0.6-0.6,1.5-0.9,2.7-0.9c1.1,0,1.9,0.3,2.5,0.8C55,69.6,55.3,70.5,55.3,71.6z
		 M49.8,71.4h4.1c0-0.7-0.2-1.2-0.5-1.6c-0.3-0.3-0.8-0.5-1.5-0.5c-0.7,0-1.2,0.2-1.6,0.5C50.1,70.2,49.9,70.7,49.8,71.4z"/>
	<path d="M57,71h5v1.3h-5V71z"/>
	<path d="M70.5,73.2l2.8-7.6h2.2l1.4,9.8h-1.5L74.3,67h-0.2l-2.8,7.6h-2L66.6,67h-0.2l-1.1,8.4h-1.4l1.4-9.8h2.2l2.8,7.6H70.5z"/>
	<path d="M82.2,75.6c-1.2,0-2.1-0.3-2.7-0.9c-0.6-0.6-0.9-1.5-0.9-2.8c0-1.2,0.3-2.1,0.9-2.7s1.5-0.9,2.7-0.9c1.2,0,2.1,0.3,2.7,0.9
		c0.6,0.6,0.9,1.5,0.9,2.7c0,1.3-0.3,2.2-0.9,2.8C84.3,75.3,83.4,75.6,82.2,75.6z M82.2,74.4c0.6,0,1-0.1,1.4-0.3
		c0.3-0.2,0.6-0.5,0.7-0.9c0.1-0.4,0.2-0.8,0.2-1.4c0-0.6-0.1-1.1-0.2-1.4c-0.2-0.4-0.4-0.6-0.7-0.8c-0.3-0.2-0.8-0.2-1.3-0.2
		s-1,0.1-1.3,0.2c-0.3,0.2-0.6,0.4-0.7,0.8c-0.2,0.4-0.2,0.8-0.2,1.4c0,0.5,0.1,1,0.2,1.4c0.1,0.4,0.4,0.7,0.7,0.9
		C81.2,74.3,81.6,74.4,82.2,74.4z"/>
	<path d="M92.2,68.2c0.6,0,1.2,0.1,1.6,0.4c0.4,0.3,0.8,0.7,1,1.2c0.2,0.5,0.4,1.2,0.4,1.9c0,1.2-0.3,2.1-0.8,2.8
		c-0.6,0.6-1.4,1-2.5,1c-0.3,0-0.6,0-1-0.1c-0.3-0.1-0.6-0.1-0.9-0.3c-0.3-0.1-0.6-0.3-0.8-0.4l-0.1,0.6h-1V65.1h1.4v3.8
		c0.4-0.1,0.7-0.2,1-0.3c0.3-0.1,0.6-0.2,0.9-0.2C91.6,68.3,91.9,68.2,92.2,68.2z M91.6,74.4c0.7,0,1.3-0.2,1.6-0.6
		c0.3-0.4,0.5-1,0.5-1.9c0-0.8-0.2-1.4-0.5-1.8c-0.3-0.4-0.8-0.6-1.5-0.6c-0.3,0-0.7,0-1.1,0.1s-0.8,0.2-1.4,0.4v3.8
		c0.3,0.2,0.7,0.4,1,0.5S91.2,74.4,91.6,74.4z"/>
	<path d="M97.3,66.9v-1.4h1.5v1.4H97.3z M98.7,68.4v7h-1.4v-7H98.7z"/>
	<path d="M104.2,75.4c-0.1,0-0.3,0.1-0.5,0.1s-0.3,0-0.5,0c-0.6,0-1.1-0.1-1.4-0.4c-0.3-0.3-0.4-0.7-0.4-1.3v-8.7h1.4v8.4
		c0,0.2,0,0.4,0.1,0.5s0.1,0.2,0.2,0.2c0.1,0,0.3,0.1,0.5,0.1c0.1,0,0.2,0,0.3,0c0.1,0,0.2,0,0.3,0V75.4z"/>
	<path d="M105.9,66.9v-1.4h1.5v1.4H105.9z M107.3,68.4v7h-1.4v-7H107.3z"/>
	<path d="M113.4,74.4c0.2,0,0.4,0,0.6,0s0.4-0.1,0.6-0.1l-0.3,1.1c-0.2,0-0.4,0.1-0.6,0.1c-0.2,0-0.4,0-0.6,0
		c-0.6,0-1.1-0.1-1.5-0.3c-0.4-0.2-0.7-0.5-0.9-0.9c-0.2-0.4-0.3-1-0.3-1.7v-3.1h-1.5l0.3-1.1h1.3v-2h1.4v2h2.7v1.1h-2.7v3.1
		c0,0.4,0.1,0.8,0.2,1c0.1,0.3,0.3,0.4,0.5,0.5S113,74.4,113.4,74.4z"/>
	<path d="M121.6,68.4h1.4l-3.6,8.3c-0.2,0.5-0.4,0.9-0.7,1.1c-0.2,0.3-0.5,0.5-0.8,0.6c-0.3,0.1-0.6,0.2-1,0.2c-0.2,0-0.5,0-0.7-0.1
		c-0.2,0-0.4-0.1-0.7-0.2v-1.2c0.2,0.1,0.3,0.1,0.5,0.2c0.2,0,0.4,0.1,0.6,0.1c0.2,0,0.4,0,0.6-0.1s0.3-0.2,0.4-0.3
		c0.1-0.1,0.2-0.3,0.3-0.6l0.4-0.9l-3.2-7.2h1.5l2.3,5.7h0.1L121.6,68.4z"/>
</g>
</svg>
